<svg version="1.1" id="Layer_1" xmlns="http://www.w3.org/2000/svg" xmlns:xlink="http://www.w3.org/1999/xlink" x="0px" y="0px"
	 width="100%" viewBox="0 0 200 200" enable-background="new 0 0 200 200" xml:space="preserve">

<path fill="#F9F9F9" opacity="1.000000" stroke="none" 
	d="
M154.806152,72.796555 
	C153.879974,85.037865 149.070419,94.792511 140.869888,103.416069 
	C136.790634,107.705757 134.113953,113.482315 131.432449,118.898033 
	C129.412216,122.978165 126.203362,125.363396 122.088684,124.312515 
	C117.798004,123.216682 115.471985,119.793892 116.325638,115.204613 
	C117.836304,107.083176 121.775429,100.071777 127.788742,94.573692 
	C138.546295,84.737839 141.868515,72.959991 137.552750,59.267281 
	C132.970001,44.727650 122.902924,35.806267 107.954445,32.584007 
	C82.581291,27.114628 58.264938,50.247776 62.394432,75.888687 
	C63.416164,82.232849 66.714684,87.319984 71.147011,91.810989 
	C77.176926,97.920753 82.330429,104.594460 84.522041,113.129288 
	C86.012581,118.933907 84.180801,122.998924 79.411339,124.324097 
	C74.997963,125.550331 71.837692,122.815079 69.518562,117.578125 
	C67.406876,112.809616 64.867699,107.824646 61.249844,104.199745 
	C46.265484,89.186119 42.826328,71.685585 49.833950,52.288292 
	C57.049320,32.315952 71.735603,20.035435 92.752541,17.128881 
	C127.179550,12.367773 154.842407,37.394302 154.806152,72.796555 
z"/>
<path fill="#F7F7F7" opacity="1.000000" stroke="none" 
	d="
M95.000511,140.054459 
	C104.489906,140.054642 113.479683,140.016006 122.468910,140.069229 
	C128.087891,140.102493 131.503540,143.065445 131.548309,147.765030 
	C131.593109,152.468277 128.269424,155.633591 122.602386,155.681274 
	C108.120270,155.803192 93.635818,155.799469 79.153572,155.685440 
	C73.121674,155.637970 69.722504,152.501678 69.822342,147.625702 
	C69.922066,142.755463 73.300606,140.097931 79.518173,140.060593 
	C84.512161,140.030594 89.506485,140.054489 95.000511,140.054459 
z"/>
<path fill="#FCFCFC" opacity="1.000000" stroke="none" 
	d="
M108.878754,186.510651 
	C101.239876,186.510254 94.082100,186.579025 86.926346,186.488266 
	C80.888199,186.411697 77.322975,183.345032 77.448097,178.577042 
	C77.572891,173.821411 81.152512,171.020828 87.247574,171.002396 
	C96.401665,170.974716 105.556190,170.951248 114.709969,171.011978 
	C120.347534,171.049393 123.842934,174.047485 123.884727,178.675430 
	C123.927094,183.366455 120.581406,186.285934 114.852852,186.496597 
	C113.024445,186.563843 111.191566,186.509415 108.878754,186.510651 
z"/>
</svg>