<svg version="1.1" id="Layer_1" xmlns="http://www.w3.org/2000/svg" xmlns:xlink="http://www.w3.org/1999/xlink" x="0px" y="0px"
	 width="100%" viewBox="0 0 250 250" enable-background="new 0 0 250 250" xml:space="preserve">
<path fill="#151515" opacity="1.000000" stroke="none" 
	d="
M115.000000,251.000000 
	C76.666672,251.000000 38.833340,251.000000 1.000005,251.000000 
	C1.000003,167.666672 1.000003,84.333351 1.000002,1.000016 
	C84.333321,1.000011 167.666641,1.000011 250.999969,1.000005 
	C250.999985,84.333321 250.999985,167.666641 251.000000,250.999969 
	C205.833328,251.000000 160.666672,251.000000 115.000000,251.000000 
M93.792961,170.290512 
	C107.520241,162.110748 115.567902,150.114243 118.053268,134.334091 
	C118.831551,129.392609 121.628960,126.942268 126.399864,126.756210 
	C131.268845,126.566338 134.038193,128.766235 135.140930,133.732651 
	C135.501694,135.357361 135.787582,136.998566 136.136963,138.625946 
	C140.234665,157.712250 157.060867,173.437592 175.949768,175.841034 
	C197.098282,178.531998 216.344925,168.922668 225.512314,150.583588 
	C228.293625,145.019638 229.924423,138.880585 232.226105,132.613083 
	C234.812057,131.078156 241.183548,134.506332 241.297485,128.471558 
	C241.417725,122.103500 234.877869,125.244751 231.548676,123.612465 
	C225.721893,92.515930 203.726624,81.226288 185.292419,80.258934 
	C162.284897,79.051590 145.843658,91.884102 135.482727,119.244476 
	C129.601242,119.244476 123.937088,119.244476 117.677933,119.244476 
	C115.457901,108.348450 109.844780,98.562920 100.720116,90.947876 
	C91.494171,83.248306 80.831474,79.744003 68.831512,80.307068 
	C58.581364,80.788025 49.228428,83.835014 41.013706,90.093819 
	C29.830462,98.614342 24.117401,110.296028 21.959282,123.540283 
	C18.390501,125.427650 12.123011,122.169487 12.062974,128.281372 
	C11.999588,134.734238 18.729511,131.077255 21.830854,133.184006 
	C28.270346,172.265427 66.575439,185.126495 93.792961,170.290512 
z"/>
<path fill="#F5F5F5" opacity="1.000000" stroke="none" 
	d="
M93.481903,170.486801 
	C66.575439,185.126495 28.270346,172.265427 21.827679,133.190491 
	C18.729511,131.077255 11.999588,134.734238 12.062974,128.281372 
	C12.123011,122.169487 18.390501,125.427650 21.959282,123.540283 
	C24.117401,110.296028 29.830462,98.614342 41.013706,90.093819 
	C49.228428,83.835014 58.581364,80.788025 68.831512,80.307068 
	C80.831474,79.744003 91.494171,83.248306 100.720116,90.947876 
	C109.844780,98.562920 115.457901,108.348450 117.677933,119.244476 
	C123.937088,119.244476 129.601242,119.244476 135.482727,119.244476 
	C145.843658,91.884102 162.284897,79.051590 185.292419,80.258934 
	C203.726624,81.226288 225.721893,92.515930 231.547363,123.615143 
	C234.877869,125.244751 241.417725,122.103500 241.297485,128.471558 
	C241.183548,134.506332 234.812057,131.078156 232.226105,132.613083 
	C229.924423,138.880585 228.293625,145.019638 225.512314,150.583588 
	C216.344925,168.922668 197.098282,178.531998 175.949768,175.841034 
	C157.060867,173.437592 140.234665,157.712250 136.136963,138.625946 
	C135.787582,136.998566 135.501694,135.357361 135.140930,133.732651 
	C134.038193,128.766235 131.268845,126.566338 126.399864,126.756210 
	C121.628960,126.942268 118.831551,129.392609 118.053268,134.334091 
	C115.567902,150.114243 107.520241,162.110748 93.481903,170.486801 
M208.081787,97.350815 
	C192.633865,86.110008 174.536377,85.670822 159.820541,96.179619 
	C146.127548,105.957977 139.957367,123.609726 144.687820,139.471558 
	C149.619019,156.006516 164.360291,167.558868 181.443222,168.275787 
	C198.273331,168.982101 213.709137,159.080963 220.053940,143.509369 
	C226.582260,127.487389 222.120651,109.668541 208.081787,97.350815 
M109.428627,134.650482 
	C113.921471,105.885498 87.980743,82.567780 59.786301,89.997810 
	C40.416100,95.102402 28.121939,113.621056 30.600084,133.683990 
	C32.922798,152.488541 49.229942,167.603851 67.652901,168.028732 
	C88.829063,168.517136 106.052628,155.068253 109.428627,134.650482 
z"/>
<path fill="#171717" opacity="1.000000" stroke="none" 
	d="
M208.349411,97.591690 
	C222.120651,109.668541 226.582260,127.487389 220.053940,143.509369 
	C213.709137,159.080963 198.273331,168.982101 181.443222,168.275787 
	C164.360291,167.558868 149.619019,156.006516 144.687820,139.471558 
	C139.957367,123.609726 146.127548,105.957977 159.820541,96.179619 
	C174.536377,85.670822 192.633865,86.110008 208.349411,97.591690 
M161.689468,114.369644 
	C166.426270,107.586082 172.783676,103.623421 181.128052,102.803825 
	C182.482010,102.670837 183.718842,101.345367 185.009811,100.571083 
	C183.510696,100.007195 181.984528,98.893860 180.516739,98.966110 
	C168.487030,99.558273 156.397064,110.164528 154.249969,122.038368 
	C153.783585,124.617538 154.181808,127.353035 154.181808,130.016525 
	C154.716507,130.099045 155.251205,130.181564 155.785904,130.264069 
	C157.615051,125.170647 159.444199,120.077217 161.689468,114.369644 
z"/>
<path fill="#171717" opacity="1.000000" stroke="none" 
	d="
M109.368118,135.076736 
	C106.052628,155.068253 88.829063,168.517136 67.652901,168.028732 
	C49.229942,167.603851 32.922798,152.488541 30.600084,133.683990 
	C28.121939,113.621056 40.416100,95.102402 59.786301,89.997810 
	C87.980743,82.567780 113.921471,105.885498 109.368118,135.076736 
M44.754719,113.350258 
	C43.432072,117.574631 41.924248,121.755356 40.911255,126.052719 
	C40.643311,127.189407 41.899963,128.685486 42.456562,130.016541 
	C43.144249,128.906586 43.853512,127.809036 44.503716,126.677544 
	C44.656906,126.410965 44.605797,126.029175 44.657536,125.701790 
	C46.652126,113.079796 54.787796,105.000320 67.444595,102.919189 
	C69.025322,102.659279 70.515076,101.846115 72.511642,101.120407 
	C65.900116,96.024605 53.193176,101.834412 44.754719,113.350258 
z"/>
<path fill="#E6E6E6" opacity="1.000000" stroke="none" 
	d="
M161.481415,114.676712 
	C159.444199,120.077217 157.615051,125.170647 155.785904,130.264069 
	C155.251205,130.181564 154.716507,130.099045 154.181808,130.016525 
	C154.181808,127.353035 153.783585,124.617538 154.249969,122.038368 
	C156.397064,110.164528 168.487030,99.558273 180.516739,98.966110 
	C181.984528,98.893860 183.510696,100.007195 185.009811,100.571083 
	C183.718842,101.345367 182.482010,102.670837 181.128052,102.803825 
	C172.783676,103.623421 166.426270,107.586082 161.481415,114.676712 
z"/>
<path fill="#E8E8E8" opacity="1.000000" stroke="none" 
	d="
M44.940155,113.033356 
	C53.193176,101.834412 65.900116,96.024605 72.511642,101.120407 
	C70.515076,101.846115 69.025322,102.659279 67.444595,102.919189 
	C54.787796,105.000320 46.652126,113.079796 44.657536,125.701790 
	C44.605797,126.029175 44.656906,126.410965 44.503716,126.677544 
	C43.853512,127.809036 43.144249,128.906586 42.456558,130.016541 
	C41.899963,128.685486 40.643311,127.189407 40.911255,126.052719 
	C41.924248,121.755356 43.432072,117.574631 44.940155,113.033356 
z"/>
</svg>