<svg version="1.1" id="Layer_1" xmlns="http://www.w3.org/2000/svg" xmlns:xlink="http://www.w3.org/1999/xlink" x="0px" y="0px"
	 width="100%" viewBox="0 0 200 200" enable-background="new 0 0 200 200" xml:space="preserve">

<path fill="#F9F8F9" opacity="1.000000" stroke="none" 
	d="
M46.791451,154.989136 
	C46.791443,134.350266 46.791443,114.209053 46.791443,93.272057 
	C43.726734,93.272057 40.971462,93.344711 38.221172,93.258537 
	C29.734901,92.992622 24.060514,88.319038 22.511269,79.985764 
	C20.898579,71.311218 19.372803,62.610565 18.175343,53.871132 
	C16.402340,40.931210 22.465946,31.426449 34.844433,27.245096 
	C44.152390,24.100946 53.488056,21.038858 62.809032,17.933189 
	C73.949890,14.221154 76.210121,15.585434 78.012344,27.128187 
	C79.773987,38.411026 89.062988,46.569118 100.433884,46.819977 
	C111.596649,47.066242 121.282341,39.513386 123.634750,28.633354 
	C124.019066,26.855915 123.967499,24.988878 124.231705,23.179945 
	C125.007431,17.868870 129.193161,14.771893 134.320938,16.387054 
	C146.390640,20.188799 158.478073,24.007261 170.300888,28.496889 
	C179.910034,32.145889 185.337173,42.360664 183.861603,52.841011 
	C182.538345,62.239601 180.896133,71.600212 179.127670,80.926964 
	C177.760742,88.135834 172.118607,92.791138 164.706192,93.191658 
	C161.753525,93.351212 158.785034,93.217888 155.161514,93.217888 
	C155.161514,95.515076 155.163910,97.282074 155.161163,99.049072 
	C155.129257,119.541931 155.103973,140.034805 155.061768,160.527649 
	C155.028717,176.572632 145.565292,186.080139 129.593277,186.095474 
	C110.932549,186.113403 92.271782,186.101883 73.611038,186.099289 
	C55.760792,186.096817 46.800156,177.202637 46.791573,159.485626 
	C46.790928,158.152679 46.791466,156.819748 46.791451,154.989136 
M111.221596,61.017021 
	C89.122101,65.523796 75.657463,58.097351 63.110313,34.327507 
	C61.910294,34.645954 60.630512,34.914116 59.398052,35.324413 
	C52.291790,37.690166 45.133659,39.920937 38.122482,42.543362 
	C34.179562,44.018154 32.818817,47.413818 33.430267,51.493954 
	C34.071651,55.773876 34.786549,60.045494 35.593819,64.297104 
	C36.425724,68.678474 36.023525,74.695633 38.711296,76.931030 
	C41.426926,79.189613 47.268848,77.761703 51.742863,77.817810 
	C59.883095,77.919914 62.056324,80.063606 62.057968,88.246193 
	C62.062794,112.236061 62.026703,136.226013 62.079815,160.215759 
	C62.096748,167.863403 64.767487,170.490723 72.253906,170.499207 
	C91.412460,170.520950 110.571083,170.526932 129.729614,170.495804 
	C136.885300,170.484177 139.383331,168.013000 139.438370,160.932358 
	C139.538086,148.106766 139.600677,135.280762 139.636627,122.454811 
	C139.669327,110.793152 139.601151,99.131096 139.664520,87.469688 
	C139.701675,80.629578 142.290878,77.977425 148.898788,77.852448 
	C152.895706,77.776840 156.909973,78.025337 160.884613,77.717422 
	C162.109207,77.622559 164.067764,76.333755 164.264008,75.316483 
	C165.872330,66.979698 167.289246,58.597980 168.450211,50.186562 
	C168.962967,46.471489 166.976456,43.664646 163.443771,42.431297 
	C155.289108,39.584297 147.066360,36.932327 138.486450,34.073009 
	C133.968002,47.448524 125.357887,56.524643 111.221596,61.017021 
z"/>

</svg>