<svg version="1.1" id="Layer_1" xmlns="http://www.w3.org/2000/svg" xmlns:xlink="http://www.w3.org/1999/xlink" x="0px" y="0px"
	 width="100%" viewBox="0 0 200 200" enable-background="new 0 0 200 200" xml:space="preserve">

<path fill="#F5F3F1" opacity="1.000000" stroke="none" 
	d="
M52.193840,87.687386 
	C44.434029,85.091896 37.042576,82.638710 28.206614,79.706100 
	C38.638054,76.213356 47.549625,72.830452 56.695793,70.293221 
	C64.029388,68.258804 68.295425,64.308899 70.261177,56.786049 
	C72.648140,47.651249 76.105751,38.796215 79.599792,28.322428 
	C80.829094,31.873703 81.629295,34.097698 82.370094,36.341309 
	C84.925285,44.080147 87.584717,51.787781 89.957535,59.582466 
	C91.502258,64.656891 94.591743,67.742523 99.662529,69.324539 
	C109.651810,72.441055 119.556198,75.829681 130.892288,79.566078 
	C126.005775,81.298943 122.402016,82.639168 118.756973,83.855705 
	C112.446289,85.961906 106.153580,88.140533 99.770699,90.006058 
	C94.647301,91.503487 91.583923,94.704781 89.996155,99.709564 
	C86.837814,109.664902 83.535049,119.574425 79.788849,131.043060 
	C78.173447,126.534599 77.001656,123.443710 75.956955,120.310440 
	C73.905197,114.156723 71.591980,108.063576 70.002853,101.789360 
	C68.249390,94.866356 64.212029,90.807777 57.316223,89.342903 
	C55.697449,88.999031 54.145107,88.342422 52.193840,87.687386 
z"/>
<path fill="#F1F0ED" opacity="1.000000" stroke="none" 
	d="
M127.590515,119.468079 
	C128.772156,116.008408 129.822235,112.917870 131.287598,108.605080 
	C133.558624,115.549858 135.566589,121.150780 137.194748,126.860008 
	C138.267212,130.620651 140.470642,132.770798 144.148224,133.893295 
	C149.810394,135.621552 155.396774,137.598145 162.552856,139.981445 
	C156.664322,141.962997 152.286758,143.892410 147.706039,144.869614 
	C140.986649,146.303070 137.471848,150.195175 135.994431,156.737320 
	C134.975052,161.251251 133.219650,165.598953 130.768097,170.244141 
	C129.025482,164.999725 127.073036,159.813324 125.602463,154.493713 
	C124.275558,149.693848 121.665131,146.830368 116.683434,145.594406 
	C111.469795,144.300873 106.443558,142.251953 101.343452,139.462677 
	C105.829185,137.969269 110.233269,136.119400 114.820404,135.068619 
	C121.205688,133.605911 125.155502,130.211975 126.176407,123.605560 
	C126.375961,122.314217 127.019951,121.091560 127.590515,119.468079 
z"/>
</svg>