<svg version="1.1" id="Layer_1" xmlns="http://www.w3.org/2000/svg" xmlns:xlink="http://www.w3.org/1999/xlink" x="0px" y="0px"
	 width="100%" viewBox="0 0 816 864" enable-background="new 0 0 816 864" xml:space="preserve">
<path fill="#000000" opacity="1.000000" stroke="none" 
	d="
M624.416626,865.000000 
	C617.058411,843.644226 610.129700,822.284363 603.171021,800.934143 
	C598.118896,785.433533 592.665039,770.052673 588.050049,754.423645 
	C582.969849,737.219482 572.532959,726.230591 555.186462,720.746399 
	C517.754517,708.911987 480.560425,696.324890 443.285553,683.995789 
	C441.978485,683.563354 440.202850,683.610535 439.491730,681.163025 
	C447.924774,678.338684 456.344940,675.485474 464.786652,672.697510 
	C495.753448,662.470459 526.699463,652.179077 557.710876,642.088928 
	C572.481262,637.283203 581.923279,627.556213 586.709106,612.867798 
	C598.922424,575.383057 611.278442,537.944824 623.587585,500.491425 
	C624.250427,498.474609 624.585205,496.271454 626.465210,494.785522 
	C628.378906,496.281128 628.559082,498.560364 629.212219,500.543213 
	C641.595825,538.141846 653.921570,575.759521 666.281982,613.365784 
	C671.028992,627.808472 680.517456,637.279114 695.142151,642.029724 
	C733.283630,654.419495 771.322388,667.125244 809.401123,679.707764 
	C810.764526,680.158325 812.228516,680.451538 813.237122,681.689331 
	C812.102356,683.758972 810.102356,683.783997 808.463928,684.326111 
	C770.240417,696.971802 732.001099,709.569580 693.771667,722.197205 
	C681.320618,726.309998 671.914978,734.328247 667.752441,746.640320 
	C654.539795,785.721558 641.993652,825.028198 629.094971,864.623840 
	C627.611084,865.000000 626.222229,865.000000 624.416626,865.000000 
z"/>
<path fill="#000000" opacity="1.000000" stroke="none" 
	d="
M260.385986,193.542389 
	C279.872070,134.073883 299.215729,74.975410 318.580627,15.812015 
	C321.284973,16.670736 321.169891,18.570211 321.649506,20.026188 
	C337.528046,68.230957 353.386414,116.442383 369.232361,164.657898 
	C374.478271,180.620071 379.593964,196.625580 384.925934,212.558807 
	C392.678131,235.724136 408.527100,250.549332 431.661255,258.099548 
	C478.492584,273.383759 525.255554,288.877502 572.047363,304.282867 
	C588.808044,309.800995 605.572083,315.309357 622.329651,320.837006 
	C623.414612,321.194855 624.457581,321.679993 625.511353,322.102448 
	C625.194214,324.633484 623.100708,324.452637 621.728699,324.906464 
	C562.793213,344.399994 503.827393,363.801605 444.890533,383.290894 
	C433.389191,387.094177 421.599060,390.104309 411.348450,397.149170 
	C397.215179,406.862457 388.839813,420.377258 383.650879,436.360962 
	C370.238922,477.674042 356.696442,518.944763 343.189117,560.226868 
	C336.098907,581.896484 328.980927,603.557129 321.846283,625.212158 
	C321.341064,626.745605 321.264008,628.556946 319.565002,629.513489 
	C317.744232,628.736328 317.673340,626.882507 317.183838,625.389465 
	C296.445679,562.141846 275.607971,498.926300 255.110825,435.600525 
	C247.412369,411.816223 232.276627,395.831421 208.519592,388.015778 
	C147.818527,368.046173 87.119209,348.071289 26.426252,328.077118 
	C21.947433,326.601685 17.525070,324.954926 12.217156,323.085114 
	C16.391619,320.380768 20.022011,319.714233 23.439758,318.585693 
	C85.238419,298.179749 147.054901,277.827820 208.860794,257.443817 
	C231.658066,249.925110 246.810562,234.733948 254.325409,211.932556 
	C256.304413,205.927917 258.271149,199.919235 260.385986,193.542389 
z"/>
</svg>