<svg version="1.1" id="Layer_1" xmlns="http://www.w3.org/2000/svg" xmlns:xlink="http://www.w3.org/1999/xlink" x="0px" y="0px"
	 width="100%" viewBox="0 0 174 176" enable-background="new 0 0 174 176" xml:space="preserve">

<path fill="#FCFCFC" opacity="1.000000" stroke="none" 
	d="
M75.064499,146.901627 
	C72.013489,137.538452 68.871056,128.615707 66.137024,119.569519 
	C64.889801,115.442772 62.473969,113.206520 58.481579,111.921410 
	C44.581108,107.446945 30.764906,102.710564 16.862057,98.243736 
	C12.839293,96.951271 9.919694,95.008957 9.801951,90.428963 
	C9.676192,85.537178 12.870688,83.469742 16.970505,82.141785 
	C30.709587,77.691620 44.408253,73.114555 58.179993,68.768608 
	C62.366146,67.447586 64.830292,65.099945 66.180527,60.812840 
	C70.564293,46.893959 75.366005,33.107227 79.835846,19.214609 
	C81.138069,15.167184 83.256973,12.232496 87.702438,12.146508 
	C92.455750,12.054567 94.616241,15.263313 95.954224,19.410013 
	C100.236534,32.681793 104.814415,45.861519 108.881920,59.197643 
	C110.495842,64.489235 113.254768,67.512924 118.691101,69.137070 
	C132.040268,73.125206 145.196396,77.756409 158.456345,82.048111 
	C162.540634,83.370041 165.930130,85.343323 165.927780,90.143044 
	C165.925476,94.846977 162.867233,97.002014 158.628372,98.346802 
	C145.349579,102.559540 132.198990,107.181969 118.884163,111.272797 
	C113.607056,112.894127 110.543068,115.686325 108.914757,121.100983 
	C104.900490,134.449783 100.284660,147.616714 96.008553,160.888290 
	C94.688255,164.986053 92.812614,168.297394 87.903290,168.271255 
	C83.084724,168.245605 80.970825,165.221207 79.733505,160.970932 
	C78.390167,156.356476 76.686424,151.846939 75.064499,146.901627 
M121.521088,94.040184 
	C124.918915,92.916634 128.316742,91.793076 132.894470,90.279373 
	C127.632256,88.509781 123.536201,86.605774 119.233223,85.780022 
	C103.810448,82.820328 95.240227,73.389244 92.119652,58.364773 
	C91.616829,55.943855 90.711792,53.599937 89.903046,51.251293 
	C89.318375,49.553368 88.585251,47.906567 87.641487,45.543896 
	C85.352936,52.460442 83.105530,58.372890 81.451569,64.446930 
	C78.606430,74.895462 72.037445,81.198181 61.662975,84.036446 
	C55.518127,85.717560 49.531464,87.976868 42.528152,90.288246 
	C50.095520,92.769859 56.503819,95.038666 63.013268,96.965820 
	C72.182678,99.680458 78.199036,105.383156 80.996689,114.581863 
	C82.990723,121.138275 85.232552,127.619339 87.762520,135.352829 
	C89.347870,130.753769 90.992592,127.443756 91.606697,123.952461 
	C94.537918,107.288048 104.135750,97.378044 121.521088,94.040184 
z"/>
<path fill="#FCFBFC" opacity="1.000000" stroke="none" 
	d="
M40.026409,16.382252 
	C40.607738,20.319704 41.037735,23.877514 41.505791,27.750231 
	C47.542553,28.190678 56.231419,25.842037 56.369064,35.385654 
	C56.513050,45.369553 47.499634,42.846848 41.437878,43.418938 
	C39.863033,56.476273 38.419376,59.078728 32.961704,58.998863 
	C27.640821,58.920998 26.045862,55.954205 24.803490,43.452599 
	C18.766441,42.662445 9.946056,45.647167 9.896616,34.841751 
	C9.872643,29.602480 12.832471,28.323011 25.162153,27.566086 
	C25.162153,25.562225 25.148703,23.493832 25.165039,21.425674 
	C25.196125,17.490580 26.352709,14.209967 30.388584,12.665953 
	C34.486473,11.098215 37.458683,12.769724 40.026409,16.382252 
z"/>
<path fill="#FBFBFB" opacity="1.000000" stroke="none" 
	d="
M161.592804,151.935608 
	C157.781235,152.464539 154.345398,152.841049 150.434021,153.269684 
	C149.669937,159.100159 152.597366,168.160660 142.391647,168.068939 
	C132.468079,167.979736 135.440872,159.203125 134.668243,153.120224 
	C128.355545,152.269180 119.335152,154.852203 119.341713,144.952728 
	C119.348274,135.050446 128.344208,137.603226 134.383118,136.891541 
	C135.885101,124.068077 137.445969,121.292496 142.865860,121.549454 
	C148.162689,121.800591 149.675095,124.701469 150.632507,137.065567 
	C152.637146,137.065567 154.714310,137.106171 156.789337,137.056946 
	C160.842728,136.960815 164.019058,138.467850 165.479034,142.365799 
	C166.979309,146.371399 165.337799,149.461594 161.592804,151.935608 
z"/>

</svg>